<?xml version="1.0" encoding="UTF-8" standalone="no"?>
<!-- Created with Inkscape (http://www.inkscape.org/) -->

<svg
   xmlns:dc="http://purl.org/dc/elements/1.1/"
   xmlns:cc="http://creativecommons.org/ns#"
   xmlns:rdf="http://www.w3.org/1999/02/22-rdf-syntax-ns#"
   xmlns:svg="http://www.w3.org/2000/svg"
   xmlns="http://www.w3.org/2000/svg"
   xmlns:sodipodi="http://sodipodi.sourceforge.net/DTD/sodipodi-0.dtd"
   xmlns:inkscape="http://www.inkscape.org/namespaces/inkscape"
   width="43.218655mm"
   height="36.18906mm"
   viewBox="0 0 153.13697 128.22895"
   id="svg15279"
   version="1.1"
   inkscape:version="0.91 r13725"
   sodipodi:docname="HttpUpstreamGateway.svg">
  <defs
     id="defs15281" />
  <sodipodi:namedview
     id="base"
     pagecolor="#ffffff"
     bordercolor="#666666"
     borderopacity="1.0"
     inkscape:pageopacity="0.0"
     inkscape:pageshadow="2"
     inkscape:zoom="0.35"
     inkscape:cx="167.28276"
     inkscape:cy="661.25733"
     inkscape:document-units="px"
     inkscape:current-layer="layer1"
     showgrid="false"
     fit-margin-top="1"
     fit-margin-left="1"
     fit-margin-right="1"
     fit-margin-bottom="1"
     inkscape:window-width="1366"
     inkscape:window-height="745"
     inkscape:window-x="-8"
     inkscape:window-y="-8"
     inkscape:window-maximized="1" />
  <metadata
     id="metadata15284">
    <rdf:RDF>
      <cc:Work
         rdf:about="">
        <dc:format>image/svg+xml</dc:format>
        <dc:type
           rdf:resource="http://purl.org/dc/dcmitype/StillImage" />
        <dc:title></dc:title>
      </cc:Work>
    </rdf:RDF>
  </metadata>
  <g
     inkscape:label="Layer 1"
     inkscape:groupmode="layer"
     id="layer1"
     transform="translate(59.425622,-1065.3906)">
    <g
       style="display:inline;fill:#800080;fill-opacity:1"
       transform="matrix(-1,0,0,1,134.81942,454.49327)"
       id="g14940">
      <rect
         style="color:#000000;display:inline;overflow:visible;visibility:visible;fill:#800080;fill-opacity:1;fill-rule:nonzero;stroke:#0b280b;stroke-width:2.49583793;stroke-miterlimit:4;stroke-dasharray:none;stroke-dashoffset:0;marker:none;enable-background:accumulate"
         id="rect14942"
         width="39.971428"
         height="23.752121"
         x="687.36249"
         y="151.41501"
         transform="matrix(0,1,1,0,0,0)" />
      <rect
         y="166.82719"
         x="683.67639"
         height="22.626621"
         width="47.343639"
         id="rect14944"
         style="color:#000000;display:inline;overflow:visible;visibility:visible;fill:#800080;fill-opacity:1;fill-rule:nonzero;stroke:#0b280b;stroke-width:2.49583793;stroke-miterlimit:4;stroke-dasharray:none;stroke-dashoffset:0;marker:none;enable-background:accumulate"
         transform="matrix(0,1,1,0,0,0)" />
    </g>
    <path
       inkscape:connector-curvature="0"
       id="path14946"
       d="m 45.200236,1069.548 a 15.198389,15.198389 0 0 0 -14.976066,12.7091 15.198389,15.198389 0 0 0 -3.01416,-0.3022 15.198389,15.198389 0 0 0 -15.19796,15.198 15.198389,15.198389 0 0 0 3.43996,9.6158 15.198389,15.198389 0 0 0 -3.43996,9.6158 15.198389,15.198389 0 0 0 15.19796,15.1979 15.198389,15.198389 0 0 0 14.66661,-11.2853 15.198389,15.198389 0 0 0 14.489106,10.6652 15.198389,15.198389 0 0 0 8.5975,-2.6663 15.818731,15.818731 0 0 0 8.77263,2.6663 15.818731,15.818731 0 0 0 15.81807,-15.8192 15.818731,15.818731 0 0 0 -4.35872,-10.8932 15.198389,15.198389 0 0 0 2.49841,-8.3373 15.198389,15.198389 0 0 0 -15.19917,-15.1979 15.198389,15.198389 0 0 0 -12.28095,6.2706 15.198389,15.198389 0 0 0 0.18471,-2.2394 15.198389,15.198389 0 0 0 -15.19797,-15.1979 z"
       style="display:inline;fill:#f9f9f9;fill-opacity:1;stroke:#666666;stroke-width:1.22821534;stroke-linecap:butt;stroke-linejoin:round;stroke-miterlimit:4;stroke-dasharray:none;stroke-dashoffset:0;stroke-opacity:1" />
    <rect
       y="1109.8652"
       x="-18.616995"
       height="79.199997"
       width="46.39999"
       id="rect14948"
       style="display:inline;opacity:1;fill:#cccccc;fill-opacity:1;stroke:#000000;stroke-width:2.02200007;stroke-linecap:round;stroke-linejoin:round;stroke-miterlimit:4;stroke-dasharray:none;stroke-dashoffset:0;stroke-opacity:1" />
    <circle
       r="4"
       cy="1119.4652"
       cx="18.182993"
       id="circle14950"
       style="display:inline;opacity:1;fill:#2b2200;fill-opacity:1;stroke:none;stroke-width:2.02200007;stroke-linecap:round;stroke-linejoin:round;stroke-miterlimit:4;stroke-dasharray:none;stroke-dashoffset:0;stroke-opacity:1" />
    <path
       sodipodi:type="star"
       style="display:inline;opacity:1;fill:#00ff00;fill-opacity:1;stroke:#000000;stroke-width:7.47155905;stroke-linecap:round;stroke-linejoin:round;stroke-miterlimit:4;stroke-dasharray:none;stroke-dashoffset:0;stroke-opacity:1"
       id="path14952"
       sodipodi:sides="3"
       sodipodi:cx="33.57143"
       sodipodi:cy="365.2193"
       sodipodi:r1="27.19919"
       sodipodi:r2="13.599595"
       sodipodi:arg1="0.52359878"
       sodipodi:arg2="1.5707963"
       inkscape:flatsided="true"
       inkscape:rounded="0"
       inkscape:randomized="0"
       d="m 57.12662,378.81889 -47.110379,0 23.555189,-40.79878 z"
       transform="matrix(0,0.16341147,0.30349061,0,-152.0981,1156.3555)"
       inkscape:transform-center-x="2.063681" />
    <g
       style="display:inline"
       transform="translate(-320.21701,85.065219)"
       id="g14954">
      <rect
         style="opacity:1;fill:#ffffff;fill-opacity:1;stroke:none;stroke-width:2.02200007;stroke-linecap:round;stroke-linejoin:round;stroke-miterlimit:4;stroke-dasharray:none;stroke-dashoffset:0;stroke-opacity:1"
         id="rect14956"
         width="36.799999"
         height="12.8"
         x="306.10001"
         y="1051.7" />
      <rect
         y="1054.2"
         x="309.60001"
         height="7.8000002"
         width="29.799999"
         id="rect14958"
         style="opacity:1;fill:#008000;fill-opacity:1;stroke:none;stroke-width:2.02200007;stroke-linecap:round;stroke-linejoin:round;stroke-miterlimit:4;stroke-dasharray:none;stroke-dashoffset:0;stroke-opacity:1" />
    </g>
    <g
       style="display:inline"
       transform="translate(-320.21701,101.56522)"
       id="g14960">
      <rect
         y="1051.7"
         x="306.10001"
         height="12.8"
         width="36.799999"
         id="rect14962"
         style="opacity:1;fill:#ffffff;fill-opacity:1;stroke:none;stroke-width:2.02200007;stroke-linecap:round;stroke-linejoin:round;stroke-miterlimit:4;stroke-dasharray:none;stroke-dashoffset:0;stroke-opacity:1" />
      <rect
         style="opacity:1;fill:#008000;fill-opacity:1;stroke:none;stroke-width:2.02200007;stroke-linecap:round;stroke-linejoin:round;stroke-miterlimit:4;stroke-dasharray:none;stroke-dashoffset:0;stroke-opacity:1"
         id="rect14964"
         width="29.799999"
         height="7.8000002"
         x="309.60001"
         y="1054.2" />
    </g>
    <g
       style="display:inline"
       id="g14966"
       transform="translate(-320.21701,118.06522)">
      <rect
         style="opacity:1;fill:#ffffff;fill-opacity:1;stroke:none;stroke-width:2.02200007;stroke-linecap:round;stroke-linejoin:round;stroke-miterlimit:4;stroke-dasharray:none;stroke-dashoffset:0;stroke-opacity:1"
         id="rect14968"
         width="36.799999"
         height="12.8"
         x="306.10001"
         y="1051.7" />
      <rect
         y="1054.2"
         x="309.60001"
         height="7.8000002"
         width="29.799999"
         id="rect14970"
         style="opacity:1;fill:#008000;fill-opacity:1;stroke:none;stroke-width:2.02200007;stroke-linecap:round;stroke-linejoin:round;stroke-miterlimit:4;stroke-dasharray:none;stroke-dashoffset:0;stroke-opacity:1" />
    </g>
  </g>
</svg>
